<svg xmlns="http://www.w3.org/2000/svg" xmlns:xlink="http://www.w3.org/1999/xlink" viewBox="0 0 511.7 511.08"><defs><style>.cls-1{fill:url(#linear-gradient);}.cls-2{fill:#08936b;}.cls-3{fill:url(#linear-gradient-2);}</style><linearGradient id="linear-gradient" x1="51.24" y1="509.27" x2="573.46" y2="143.92" gradientUnits="userSpaceOnUse"><stop offset="0" stop-color="#2ac592"/><stop offset="1" stop-color="#087d6b"/></linearGradient><linearGradient id="linear-gradient-2" x1="-44.04" y1="316.39" x2="107.16" y2="95.88" gradientUnits="userSpaceOnUse"><stop offset="0" stop-color="#14b583"/><stop offset="0.92" stop-color="#38cf9b"/></linearGradient></defs><g id="Layer_2" data-name="Layer 2"><g id="Layer_1-2" data-name="Layer 1"><path class="cls-1" d="M511.7,255.23C511.7,392.8,403.13,505,267,510.84q-5.55.24-11.16.24c-3.78,0-7.55-.08-11.29-.24a255.79,255.79,0,0,1-209.36-126l32.73-20.65L109,337.33l.06,0,30.11-19,49,62.9,16.55,21.23L226,385.81,381.32,260.35l76,76A218.05,218.05,0,0,0,456,170.72q-3.24-7.65-7-15c-1.09-2.12-2.21-4.21-3.37-6.29a217.26,217.26,0,0,0-36.17-47.77,220,220,0,0,0-23.63-20.49L414,54.11A255.34,255.34,0,0,1,511.7,255.23Z"/><path class="cls-2" d="M420.3,173l-.05.49-5.69,61.13L400.3,215,209.38,364.69l-64-82.06L55.55,339.3,22.44,360.19c-1.14-2.55-2.24-5.1-3.31-7.69-.26-.63-.51-1.26-.76-1.89-1-2.43-1.91-4.86-2.81-7.31l-.9-2.47-.37-1.06c-.29-.82-.57-1.63-.84-2.44Q11,330.21,9,322.9l34.49-21.76,110.85-69.93L216,310.3,377.55,183.64,364,165Z"/><path class="cls-3" d="M98.38,53.59,126,81.17a219.37,219.37,0,0,0-23.66,20.51,216.43,216.43,0,0,0-45.55,66.71c-.34.78-.68,1.55-1,2.33a215.22,215.22,0,0,0-9.54,27.66c-.1.35-.19.71-.28,1.07A212.24,212.24,0,0,0,40.51,227l.19-.11a228.56,228.56,0,0,0-1.44,44.26L2.94,294.08A256.14,256.14,0,0,1,98.38,53.59Z"/><polygon class="cls-2" points="431.57 0 391.62 38.35 362.69 66.12 347.64 80.57 316.18 110.77 267.7 157.32 253.6 170.84 120.72 37.96 82.77 0 137.48 0 205.95 68.48 240.33 102.84 254.16 116.67 268.74 102.67 304.6 68.25 375.7 0 431.57 0"/></g></g></svg>